<mxfile host="app.diagrams.net" modified="2020-08-04T01:49:30.315Z" agent="5.0 (Windows NT 10.0; Win64; x64) AppleWebKit/537.36 (KHTML, like Gecko) Chrome/84.0.4147.105 Safari/537.36" etag="80uKhrOkQE0Jc1PVmtNo" version="13.5.8" type="github">
  <diagram id="4NaWE_6CJTM7EADTSZiJ" name="Page-1">
    <mxGraphModel dx="868" dy="482" grid="1" gridSize="10" guides="1" tooltips="1" connect="1" arrows="1" fold="1" page="1" pageScale="1" pageWidth="850" pageHeight="1100" background="none" math="0" shadow="0">
      <root>
        <mxCell id="0" />
        <mxCell id="1" parent="0" />
        <mxCell id="DJL4isDTvc5xmz7IVGE_-20" value="" style="shape=table;html=1;whiteSpace=wrap;startSize=0;container=1;collapsible=0;childLayout=tableLayout;" parent="1" vertex="1">
          <mxGeometry x="30" y="30" width="160" height="150" as="geometry" />
        </mxCell>
        <mxCell id="DJL4isDTvc5xmz7IVGE_-21" value="" style="shape=partialRectangle;html=1;whiteSpace=wrap;collapsible=0;dropTarget=0;pointerEvents=0;fillColor=none;top=0;left=0;bottom=0;right=0;points=[[0,0.5],[1,0.5]];portConstraint=eastwest;" parent="DJL4isDTvc5xmz7IVGE_-20" vertex="1">
          <mxGeometry width="160" height="23" as="geometry" />
        </mxCell>
        <mxCell id="DJL4isDTvc5xmz7IVGE_-22" value="Profile" style="shape=partialRectangle;html=1;whiteSpace=wrap;connectable=0;overflow=hidden;fillColor=none;top=0;left=0;bottom=0;right=0;fontSize=16;" parent="DJL4isDTvc5xmz7IVGE_-21" vertex="1">
          <mxGeometry width="160" height="23" as="geometry" />
        </mxCell>
        <mxCell id="DJL4isDTvc5xmz7IVGE_-23" value="" style="shape=partialRectangle;html=1;whiteSpace=wrap;collapsible=0;dropTarget=0;pointerEvents=0;fillColor=none;top=0;left=0;bottom=0;right=0;points=[[0,0.5],[1,0.5]];portConstraint=eastwest;" parent="DJL4isDTvc5xmz7IVGE_-20" vertex="1">
          <mxGeometry y="23" width="160" height="107" as="geometry" />
        </mxCell>
        <mxCell id="DJL4isDTvc5xmz7IVGE_-24" value="Nama&lt;br style=&quot;font-size: 16px;&quot;&gt;Alamat lengkap&lt;br style=&quot;font-size: 16px;&quot;&gt;Alamat email&lt;br style=&quot;font-size: 16px;&quot;&gt;Photo&amp;nbsp;" style="shape=partialRectangle;html=1;whiteSpace=wrap;connectable=0;overflow=hidden;fillColor=none;top=0;left=0;bottom=0;right=0;align=left;fontSize=16;" parent="DJL4isDTvc5xmz7IVGE_-23" vertex="1">
          <mxGeometry width="160" height="107" as="geometry" />
        </mxCell>
        <mxCell id="DJL4isDTvc5xmz7IVGE_-25" value="" style="shape=partialRectangle;html=1;whiteSpace=wrap;collapsible=0;dropTarget=0;pointerEvents=0;fillColor=none;top=0;left=0;bottom=0;right=0;points=[[0,0.5],[1,0.5]];portConstraint=eastwest;" parent="DJL4isDTvc5xmz7IVGE_-20" vertex="1">
          <mxGeometry y="130" width="160" height="20" as="geometry" />
        </mxCell>
        <mxCell id="DJL4isDTvc5xmz7IVGE_-26" value="" style="shape=partialRectangle;html=1;whiteSpace=wrap;connectable=0;overflow=hidden;fillColor=none;top=0;left=0;bottom=0;right=0;" parent="DJL4isDTvc5xmz7IVGE_-25" vertex="1">
          <mxGeometry width="160" height="20" as="geometry" />
        </mxCell>
        <mxCell id="rO0Ralh3Y-FZ1ybdiReP-26" value="" style="edgeStyle=entityRelationEdgeStyle;fontSize=12;html=1;endArrow=ERzeroToMany;endFill=1;entryX=-0.006;entryY=0.273;entryDx=0;entryDy=0;entryPerimeter=0;" edge="1" parent="1" target="rO0Ralh3Y-FZ1ybdiReP-4">
          <mxGeometry width="100" height="100" relative="1" as="geometry">
            <mxPoint x="190" y="170" as="sourcePoint" />
            <mxPoint x="290" y="70" as="targetPoint" />
          </mxGeometry>
        </mxCell>
        <mxCell id="rO0Ralh3Y-FZ1ybdiReP-1" value="" style="shape=table;html=1;whiteSpace=wrap;startSize=0;container=1;collapsible=0;childLayout=tableLayout;fontSize=13;" vertex="1" parent="1">
          <mxGeometry x="300" y="30" width="160" height="150" as="geometry" />
        </mxCell>
        <mxCell id="rO0Ralh3Y-FZ1ybdiReP-2" value="" style="shape=partialRectangle;html=1;whiteSpace=wrap;collapsible=0;dropTarget=0;pointerEvents=0;fillColor=none;top=0;left=0;bottom=0;right=0;points=[[0,0.5],[1,0.5]];portConstraint=eastwest;" vertex="1" parent="rO0Ralh3Y-FZ1ybdiReP-1">
          <mxGeometry width="160" height="20" as="geometry" />
        </mxCell>
        <mxCell id="rO0Ralh3Y-FZ1ybdiReP-3" value="Pertanyaan" style="shape=partialRectangle;html=1;whiteSpace=wrap;connectable=0;overflow=hidden;fillColor=none;top=0;left=0;bottom=0;right=0;fontSize=15;" vertex="1" parent="rO0Ralh3Y-FZ1ybdiReP-2">
          <mxGeometry width="160" height="20" as="geometry" />
        </mxCell>
        <mxCell id="rO0Ralh3Y-FZ1ybdiReP-4" value="" style="shape=partialRectangle;html=1;whiteSpace=wrap;collapsible=0;dropTarget=0;pointerEvents=0;fillColor=none;top=0;left=0;bottom=0;right=0;points=[[0,0.5],[1,0.5]];portConstraint=eastwest;" vertex="1" parent="rO0Ralh3Y-FZ1ybdiReP-1">
          <mxGeometry y="20" width="160" height="110" as="geometry" />
        </mxCell>
        <mxCell id="rO0Ralh3Y-FZ1ybdiReP-5" value="&lt;font style=&quot;font-size: 15px&quot;&gt;Judul&lt;br&gt;Isi&lt;br&gt;Tanggal_dibuat&lt;br&gt;&lt;/font&gt;&lt;div style=&quot;font-size: 15px&quot;&gt;&lt;span&gt;&lt;font style=&quot;font-size: 15px&quot;&gt;Tanggal_diperbarui&lt;/font&gt;&lt;/span&gt;&lt;/div&gt;" style="shape=partialRectangle;html=1;whiteSpace=wrap;connectable=0;overflow=hidden;fillColor=none;top=0;left=0;bottom=0;right=0;fontSize=14;align=left;" vertex="1" parent="rO0Ralh3Y-FZ1ybdiReP-4">
          <mxGeometry width="160" height="110" as="geometry" />
        </mxCell>
        <mxCell id="rO0Ralh3Y-FZ1ybdiReP-6" value="" style="shape=partialRectangle;html=1;whiteSpace=wrap;collapsible=0;dropTarget=0;pointerEvents=0;fillColor=none;top=0;left=0;bottom=0;right=0;points=[[0,0.5],[1,0.5]];portConstraint=eastwest;" vertex="1" parent="rO0Ralh3Y-FZ1ybdiReP-1">
          <mxGeometry y="130" width="160" height="20" as="geometry" />
        </mxCell>
        <mxCell id="rO0Ralh3Y-FZ1ybdiReP-7" value="" style="shape=partialRectangle;html=1;whiteSpace=wrap;connectable=0;overflow=hidden;fillColor=none;top=0;left=0;bottom=0;right=0;" vertex="1" parent="rO0Ralh3Y-FZ1ybdiReP-6">
          <mxGeometry width="160" height="20" as="geometry" />
        </mxCell>
        <mxCell id="rO0Ralh3Y-FZ1ybdiReP-27" value="" style="edgeStyle=entityRelationEdgeStyle;fontSize=12;html=1;endArrow=ERzeroToMany;endFill=1;exitX=1;exitY=0.5;exitDx=0;exitDy=0;" edge="1" parent="1" source="rO0Ralh3Y-FZ1ybdiReP-4">
          <mxGeometry width="100" height="100" relative="1" as="geometry">
            <mxPoint x="505" y="170" as="sourcePoint" />
            <mxPoint x="585" y="69" as="targetPoint" />
          </mxGeometry>
        </mxCell>
        <mxCell id="rO0Ralh3Y-FZ1ybdiReP-28" value="" style="edgeStyle=entityRelationEdgeStyle;fontSize=12;html=1;endArrow=ERzeroToMany;endFill=1;exitX=1;exitY=0.5;exitDx=0;exitDy=0;entryX=0.433;entryY=0;entryDx=0;entryDy=0;entryPerimeter=0;" edge="1" parent="1" source="rO0Ralh3Y-FZ1ybdiReP-13" target="rO0Ralh3Y-FZ1ybdiReP-16">
          <mxGeometry width="100" height="100" relative="1" as="geometry">
            <mxPoint x="780" y="167" as="sourcePoint" />
            <mxPoint x="650" y="280" as="targetPoint" />
          </mxGeometry>
        </mxCell>
        <mxCell id="rO0Ralh3Y-FZ1ybdiReP-8" value="" style="shape=table;html=1;whiteSpace=wrap;startSize=0;container=1;collapsible=0;childLayout=tableLayout;" vertex="1" parent="1">
          <mxGeometry x="585" y="30" width="170" height="150" as="geometry" />
        </mxCell>
        <mxCell id="rO0Ralh3Y-FZ1ybdiReP-9" value="" style="shape=partialRectangle;html=1;whiteSpace=wrap;collapsible=0;dropTarget=0;pointerEvents=0;fillColor=none;top=0;left=0;bottom=0;right=0;points=[[0,0.5],[1,0.5]];portConstraint=eastwest;" vertex="1" parent="rO0Ralh3Y-FZ1ybdiReP-8">
          <mxGeometry width="170" height="35" as="geometry" />
        </mxCell>
        <mxCell id="rO0Ralh3Y-FZ1ybdiReP-10" value="&lt;font style=&quot;font-size: 16px&quot;&gt;Jawaban&lt;/font&gt;" style="shape=partialRectangle;html=1;whiteSpace=wrap;connectable=0;overflow=hidden;fillColor=none;top=0;left=0;bottom=0;right=0;" vertex="1" parent="rO0Ralh3Y-FZ1ybdiReP-9">
          <mxGeometry width="170" height="35" as="geometry" />
        </mxCell>
        <mxCell id="rO0Ralh3Y-FZ1ybdiReP-11" value="" style="shape=partialRectangle;html=1;whiteSpace=wrap;collapsible=0;dropTarget=0;pointerEvents=0;fillColor=none;top=0;left=0;bottom=0;right=0;points=[[0,0.5],[1,0.5]];portConstraint=eastwest;fontSize=16;" vertex="1" parent="rO0Ralh3Y-FZ1ybdiReP-8">
          <mxGeometry y="35" width="170" height="92" as="geometry" />
        </mxCell>
        <mxCell id="rO0Ralh3Y-FZ1ybdiReP-12" value="&lt;div style=&quot;font-size: 16px&quot;&gt;&lt;font style=&quot;font-size: 16px&quot;&gt;Isi&amp;nbsp;&lt;/font&gt;&lt;/div&gt;&lt;font style=&quot;font-size: 16px&quot;&gt;Tanggal_dibuat&lt;br&gt;&lt;/font&gt;&lt;div style=&quot;font-size: 16px&quot;&gt;&lt;font style=&quot;font-size: 16px&quot;&gt;Tanggal_diperbarui&lt;/font&gt;&lt;/div&gt;" style="shape=partialRectangle;html=1;whiteSpace=wrap;connectable=0;overflow=hidden;fillColor=none;top=0;left=0;bottom=0;right=0;align=left;" vertex="1" parent="rO0Ralh3Y-FZ1ybdiReP-11">
          <mxGeometry width="170" height="92" as="geometry" />
        </mxCell>
        <mxCell id="rO0Ralh3Y-FZ1ybdiReP-13" value="" style="shape=partialRectangle;html=1;whiteSpace=wrap;collapsible=0;dropTarget=0;pointerEvents=0;fillColor=none;top=0;left=0;bottom=0;right=0;points=[[0,0.5],[1,0.5]];portConstraint=eastwest;" vertex="1" parent="rO0Ralh3Y-FZ1ybdiReP-8">
          <mxGeometry y="127" width="170" height="23" as="geometry" />
        </mxCell>
        <mxCell id="rO0Ralh3Y-FZ1ybdiReP-14" value="" style="shape=partialRectangle;html=1;whiteSpace=wrap;connectable=0;overflow=hidden;fillColor=none;top=0;left=0;bottom=0;right=0;" vertex="1" parent="rO0Ralh3Y-FZ1ybdiReP-13">
          <mxGeometry width="170" height="23" as="geometry" />
        </mxCell>
        <mxCell id="rO0Ralh3Y-FZ1ybdiReP-15" value="" style="shape=table;html=1;whiteSpace=wrap;startSize=0;container=1;collapsible=0;childLayout=tableLayout;" vertex="1" parent="1">
          <mxGeometry x="575" y="290" width="180" height="150" as="geometry" />
        </mxCell>
        <mxCell id="rO0Ralh3Y-FZ1ybdiReP-16" value="" style="shape=partialRectangle;html=1;whiteSpace=wrap;collapsible=0;dropTarget=0;pointerEvents=0;fillColor=none;top=0;left=0;bottom=0;right=0;points=[[0,0.5],[1,0.5]];portConstraint=eastwest;" vertex="1" parent="rO0Ralh3Y-FZ1ybdiReP-15">
          <mxGeometry width="180" height="27" as="geometry" />
        </mxCell>
        <mxCell id="rO0Ralh3Y-FZ1ybdiReP-17" value="Komentar" style="shape=partialRectangle;html=1;whiteSpace=wrap;connectable=0;overflow=hidden;fillColor=none;top=0;left=0;bottom=0;right=0;" vertex="1" parent="rO0Ralh3Y-FZ1ybdiReP-16">
          <mxGeometry width="180" height="27" as="geometry" />
        </mxCell>
        <mxCell id="rO0Ralh3Y-FZ1ybdiReP-18" value="" style="shape=partialRectangle;html=1;whiteSpace=wrap;collapsible=0;dropTarget=0;pointerEvents=0;fillColor=none;top=0;left=0;bottom=0;right=0;points=[[0,0.5],[1,0.5]];portConstraint=eastwest;fontSize=15;" vertex="1" parent="rO0Ralh3Y-FZ1ybdiReP-15">
          <mxGeometry y="27" width="180" height="96" as="geometry" />
        </mxCell>
        <mxCell id="rO0Ralh3Y-FZ1ybdiReP-19" value="&lt;font style=&quot;font-size: 16px&quot;&gt;Isi&lt;br&gt;Tanggal_dibuat&lt;br&gt;Pemberi_komentar_id&lt;/font&gt;" style="shape=partialRectangle;html=1;whiteSpace=wrap;connectable=0;overflow=hidden;fillColor=none;top=0;left=0;bottom=0;right=0;align=left;" vertex="1" parent="rO0Ralh3Y-FZ1ybdiReP-18">
          <mxGeometry width="180" height="96" as="geometry" />
        </mxCell>
        <mxCell id="rO0Ralh3Y-FZ1ybdiReP-20" value="" style="shape=partialRectangle;html=1;whiteSpace=wrap;collapsible=0;dropTarget=0;pointerEvents=0;fillColor=none;top=0;left=0;bottom=0;right=0;points=[[0,0.5],[1,0.5]];portConstraint=eastwest;" vertex="1" parent="rO0Ralh3Y-FZ1ybdiReP-15">
          <mxGeometry y="123" width="180" height="27" as="geometry" />
        </mxCell>
        <mxCell id="rO0Ralh3Y-FZ1ybdiReP-21" value="" style="shape=partialRectangle;html=1;whiteSpace=wrap;connectable=0;overflow=hidden;fillColor=none;top=0;left=0;bottom=0;right=0;" vertex="1" parent="rO0Ralh3Y-FZ1ybdiReP-20">
          <mxGeometry width="180" height="27" as="geometry" />
        </mxCell>
        <mxCell id="rO0Ralh3Y-FZ1ybdiReP-29" value="" style="edgeStyle=entityRelationEdgeStyle;fontSize=12;html=1;endArrow=ERzeroToMany;endFill=1;entryX=0;entryY=0.5;entryDx=0;entryDy=0;" edge="1" parent="1" source="rO0Ralh3Y-FZ1ybdiReP-6" target="rO0Ralh3Y-FZ1ybdiReP-16">
          <mxGeometry width="100" height="100" relative="1" as="geometry">
            <mxPoint x="370" y="230" as="sourcePoint" />
            <mxPoint x="470" y="130" as="targetPoint" />
          </mxGeometry>
        </mxCell>
      </root>
    </mxGraphModel>
  </diagram>
</mxfile>
